<svg xmlns="http://www.w3.org/2000/svg" xmlns:xlink="http://www.w3.org/1999/xlink" width="2000" zoomAndPan="magnify" viewBox="0 0 1500 1499.999933" height="2000" preserveAspectRatio="xMidYMid meet" version="1.0"><defs><clipPath id="66fe8c2117"><path d="M 41.109375 41.109375 L 1458.609375 41.109375 L 1458.609375 1458.609375 L 41.109375 1458.609375 Z M 41.109375 41.109375 " clip-rule="nonzero"/></clipPath><clipPath id="7654cc78f9"><path d="M 41.109375 749 L 750 749 L 750 861 L 41.109375 861 Z M 41.109375 749 " clip-rule="nonzero"/></clipPath><clipPath id="8afd3c128b"><path d="M 41.109375 639 L 750 639 L 750 750 L 41.109375 750 Z M 41.109375 639 " clip-rule="nonzero"/></clipPath><clipPath id="4f595d2d9e"><path d="M 749 749 L 861 749 L 861 1458.609375 L 749 1458.609375 Z M 749 749 " clip-rule="nonzero"/></clipPath><clipPath id="4a53a838bc"><path d="M 639 749 L 750 749 L 750 1458.609375 L 639 1458.609375 Z M 639 749 " clip-rule="nonzero"/></clipPath><clipPath id="492da8c330"><path d="M 749 639 L 1458.609375 639 L 1458.609375 750 L 749 750 Z M 749 639 " clip-rule="nonzero"/></clipPath><clipPath id="9c58ff891a"><path d="M 749 749 L 1458.609375 749 L 1458.609375 861 L 749 861 Z M 749 749 " clip-rule="nonzero"/></clipPath><clipPath id="57844f7ea1"><path d="M 639 41.109375 L 750 41.109375 L 750 750 L 639 750 Z M 639 41.109375 " clip-rule="nonzero"/></clipPath><clipPath id="7ce365f928"><path d="M 749 41.109375 L 861 41.109375 L 861 750 L 749 750 Z M 749 41.109375 " clip-rule="nonzero"/></clipPath></defs><g clip-path="url(#66fe8c2117)"><path stroke-linecap="butt" transform="matrix(1.579387, 0, 0, 1.579387, -39.754563, -39.754616)" fill="none" stroke-linejoin="miter" d="M 869.159342 499.999134 C 869.159342 506.041332 869.010946 512.078583 868.714153 518.113362 C 868.419834 524.14814 867.974646 530.170552 867.383534 536.18307 C 866.78995 542.195589 866.050442 548.190795 865.165011 554.166215 C 864.277108 560.144108 863.245754 566.094795 862.066004 572.018276 C 860.888728 577.94423 859.565529 583.838032 858.096406 589.699681 C 856.629757 595.558857 855.017186 601.380934 853.263637 607.160965 C 851.510089 612.94347 849.615564 618.676509 847.580063 624.36503 C 845.544562 630.05355 843.370558 635.690132 841.060524 641.272302 C 838.748017 646.851998 836.29948 652.37481 833.717387 657.835789 C 831.13282 663.296769 828.41717 668.693443 825.570436 674.020866 C 822.721229 679.348289 819.745886 684.603988 816.639459 689.785488 C 813.533032 694.966988 810.302942 700.071817 806.944242 705.095027 C 803.588015 710.118238 800.110597 715.054885 796.51199 719.90744 C 792.913382 724.759995 789.196058 729.523513 785.364963 734.193046 C 781.531395 738.862579 777.58653 743.435655 773.530367 747.912273 C 769.471732 752.388891 765.306745 756.764106 761.035409 761.035442 C 756.764072 765.306779 752.388858 769.471766 747.912239 773.530401 C 743.435621 777.586564 738.862545 781.531429 734.193012 785.364997 C 729.523479 789.196092 724.759961 792.913416 719.907406 796.512024 C 715.054851 800.110631 710.118204 803.588048 705.094994 806.944275 C 700.071783 810.302976 694.966954 813.533066 689.785454 816.639493 C 684.603954 819.74592 679.348256 822.721263 674.020833 825.57047 C 668.69341 828.417203 663.296735 831.132853 657.835755 833.71742 C 652.374776 836.299514 646.851964 838.748051 641.272268 841.060558 C 635.690098 843.370592 630.053516 845.544596 624.364996 847.580097 C 618.678949 849.615598 612.943436 851.510123 607.160932 853.263671 C 601.3809 855.017219 595.558823 856.629791 589.699647 858.09644 C 583.837998 859.565562 577.944196 860.888762 572.018242 862.066038 C 566.094761 863.245788 560.144074 864.277141 554.166181 865.165045 C 548.190761 866.050476 542.195555 866.789983 536.183037 867.383568 C 530.170518 867.97468 524.148106 868.419868 518.113328 868.714187 C 512.07855 869.01098 506.041298 869.159376 499.9991 869.159376 C 493.959375 869.159376 487.919651 869.01098 481.887346 868.714187 C 475.852568 868.419868 469.827683 867.97468 463.815164 867.383568 C 457.802645 866.789983 451.809913 866.050476 445.83202 865.165045 C 439.8566 864.277141 433.905913 863.245788 427.979959 862.066038 C 422.054004 860.888762 416.162676 859.565562 410.301026 858.09644 C 404.44185 856.629791 398.619773 855.017219 392.837269 853.263671 C 387.057237 851.510123 381.321725 849.615598 375.633204 847.580097 C 369.944684 845.544596 364.310576 843.370592 358.728406 841.060558 C 353.146236 838.748051 347.625898 836.299514 342.164918 833.71742 C 336.701465 831.132853 331.307264 828.417203 325.979841 825.57047 C 320.649945 822.721263 315.39672 819.74592 310.212746 816.639493 C 305.031246 813.533066 299.928891 810.302976 294.90568 806.944275 C 289.882469 803.588048 284.94335 800.110631 280.090794 796.512024 C 275.238239 792.913416 270.477195 789.196092 265.807662 785.364997 C 261.138128 781.531429 256.562579 777.586564 252.088434 773.530401 C 247.611816 769.471766 243.236602 765.306779 238.965265 761.035442 C 234.691455 756.764106 230.528942 752.388891 226.470306 747.912273 C 222.414144 743.435655 218.469279 738.862579 214.635711 734.193046 C 210.802142 729.523513 207.087291 724.759995 203.488684 719.90744 C 199.890076 715.054885 196.410186 710.118238 193.053959 705.095027 C 189.697732 700.071817 186.467641 694.966988 183.361215 689.785488 C 180.254788 684.603988 177.276971 679.348289 174.430238 674.020866 C 171.581031 668.693443 168.865381 663.296769 166.283287 657.835789 C 163.701193 652.37481 161.252656 646.851998 158.940149 641.272302 C 156.627642 635.690132 154.456111 630.05355 152.42061 624.36503 C 150.385109 618.676509 148.490585 612.94347 146.737036 607.160965 C 144.981015 601.380934 143.370916 595.558857 141.904267 589.699681 C 140.435145 583.838032 139.111946 577.94423 137.932196 572.018276 C 136.75492 566.094795 135.721093 560.144108 134.835662 554.166215 C 133.950232 548.190795 133.210724 542.195589 132.617139 536.18307 C 132.026028 530.170552 131.580839 524.14814 131.284047 518.113362 C 130.987255 512.078583 130.838858 506.041332 130.838858 499.999134 C 130.838858 493.959409 130.987255 487.919685 131.284047 481.88738 C 131.580839 475.852601 132.026028 469.827716 132.617139 463.815198 C 133.210724 457.802679 133.950232 451.809946 134.835662 445.832053 C 135.721093 439.856634 136.75492 433.905947 137.932196 427.979992 C 139.111946 422.054038 140.435145 416.162709 141.904267 410.30106 C 143.370916 404.441884 144.981015 398.619807 146.737036 392.837303 C 148.490585 387.057271 150.385109 381.321759 152.42061 375.633238 C 154.456111 369.944718 156.627642 364.310609 158.940149 358.72844 C 161.252656 353.14627 163.701193 347.625932 166.283287 342.162479 C 168.865381 336.701499 171.581031 331.307298 174.430238 325.979875 C 177.276971 320.649979 180.254788 315.396754 183.361215 310.21278 C 186.467641 305.03128 189.697732 299.928925 193.053959 294.905714 C 196.410186 289.882503 199.890076 284.943383 203.488684 280.090828 C 207.087291 275.238273 210.802142 270.477229 214.635711 265.807695 C 218.469279 261.138162 222.414144 256.562613 226.470306 252.088468 C 230.528942 247.61185 234.691455 243.236636 238.965265 238.965299 C 243.236602 234.691489 247.611816 230.528976 252.088434 226.47034 C 256.562579 222.414178 261.138128 218.469312 265.807662 214.635744 C 270.477195 210.802176 275.238239 207.087325 280.090794 203.488718 C 284.94335 199.89011 289.882469 196.41022 294.90568 193.053993 C 299.928891 189.697765 305.031246 186.467675 310.212746 183.361248 C 315.39672 180.254822 320.649945 177.277005 325.979841 174.430271 C 331.307264 171.581065 336.701465 168.865414 342.164918 166.283321 C 347.625898 163.701227 353.146236 161.25269 358.728406 158.940183 C 364.310576 156.627676 369.944684 154.456145 375.633204 152.420644 C 381.321725 150.385143 387.057237 148.490618 392.837269 146.73707 C 398.619773 144.981049 404.44185 143.37095 410.301026 141.904301 C 416.162676 140.435179 422.054004 139.111979 427.979959 137.93223 C 433.905913 136.754953 439.8566 135.721127 445.83202 134.835696 C 451.809913 133.950265 457.802645 133.210758 463.815164 132.617173 C 469.827683 132.026062 475.852568 131.580873 481.887346 131.284081 C 487.919651 130.987288 493.959375 130.838892 499.9991 130.838892 C 506.041298 130.838892 512.07855 130.987288 518.113328 131.284081 C 524.148106 131.580873 530.170518 132.026062 536.183037 132.617173 C 542.195555 133.210758 548.190761 133.950265 554.166181 134.835696 C 560.144074 135.721127 566.094761 136.754953 572.018242 137.93223 C 577.944196 139.111979 583.837998 140.435179 589.699647 141.904301 C 595.558823 143.37095 601.3809 144.981049 607.160932 146.73707 C 612.943436 148.490618 618.678949 150.385143 624.364996 152.420644 C 630.053516 154.456145 635.690098 156.627676 641.272268 158.940183 C 646.851964 161.25269 652.374776 163.701227 657.835755 166.283321 C 663.296735 168.865414 668.69341 171.581065 674.020833 174.430271 C 679.348256 177.277005 684.603954 180.254822 689.785454 183.361248 C 694.966954 186.467675 700.071783 189.697765 705.094994 193.053993 C 710.118204 196.41022 715.054851 199.89011 719.907406 203.488718 C 724.759961 207.087325 729.523479 210.802176 734.193012 214.635744 C 738.862545 218.469312 743.435621 222.414178 747.912239 226.47034 C 752.388858 230.528976 756.764072 234.691489 761.035409 238.965299 C 765.306745 243.236636 769.471732 247.61185 773.530367 252.088468 C 777.58653 256.562613 781.531395 261.138162 785.364963 265.807695 C 789.196058 270.477229 792.913382 275.238273 796.51199 280.090828 C 800.110597 284.943383 803.588015 289.882503 806.944242 294.905714 C 810.302942 299.928925 813.533032 305.03128 816.639459 310.21278 C 819.745886 315.396754 822.721229 320.649979 825.570436 325.979875 C 828.41717 331.307298 831.13282 336.701499 833.717387 342.162479 C 836.29948 347.625932 838.748017 353.14627 841.060524 358.72844 C 843.370558 364.310609 845.544562 369.944718 847.580063 375.633238 C 849.615564 381.321759 851.510089 387.057271 853.263637 392.837303 C 855.017186 398.619807 856.629757 404.441884 858.096406 410.30106 C 859.565529 416.162709 860.888728 422.054038 862.066004 427.979992 C 863.245754 433.905947 864.277108 439.856634 865.165011 445.832053 C 866.050442 451.809946 866.78995 457.802679 867.383534 463.815198 C 867.974646 469.827716 868.419834 475.852601 868.714153 481.88738 C 869.010946 487.919685 869.159342 493.959409 869.159342 499.999134 Z M 869.159342 499.999134 " stroke="#000000" stroke-width="10.99" stroke-opacity="1" stroke-miterlimit="10"/><path stroke-linecap="butt" transform="matrix(1.579387, 0, 0, 1.579387, -39.754563, -39.754616)" fill="none" stroke-linejoin="miter" d="M 835.940856 499.999134 C 835.940856 505.497213 835.804826 510.992818 835.53524 516.483477 C 835.265653 521.974136 834.860037 527.457375 834.323338 532.928247 C 833.784165 538.39912 833.111435 543.855153 832.302676 549.2914 C 831.49639 554.73012 830.556548 560.146581 829.485622 565.538309 C 828.412223 570.930037 827.207741 576.294559 825.872175 581.626929 C 824.536609 586.959298 823.06996 592.257042 821.474701 597.517687 C 819.879442 602.778331 818.155573 607.999404 816.303094 613.175957 C 814.450615 618.350038 812.471999 623.479599 810.367247 628.559695 C 808.264968 633.637318 806.036552 638.663002 803.686945 643.631801 C 801.334866 648.603073 798.864069 653.512514 796.272083 658.360122 C 793.680096 663.210204 790.971866 667.991035 788.144918 672.70756 C 785.317971 677.424086 782.377253 682.066413 779.322765 686.637015 C 776.268277 691.210091 773.104965 695.704022 769.830356 700.118809 C 766.553273 704.536068 763.172314 708.869237 759.685003 713.118314 C 756.197693 717.367392 752.606505 721.529905 748.916387 725.60338 C 745.223795 729.676855 741.432273 733.65882 737.544293 737.544326 C 733.658786 741.432306 729.676822 745.223829 725.603346 748.913947 C 721.529871 752.606539 717.367358 756.197727 713.118281 759.685037 C 708.869203 763.172347 704.536035 766.553307 700.118775 769.83039 C 695.703988 773.104999 691.210057 776.268311 686.636982 779.322799 C 682.066379 782.377287 677.424052 785.318005 672.707526 788.144952 C 667.991001 790.971899 663.210171 793.68013 658.360089 796.272116 C 653.51248 798.864103 648.603039 801.3349 643.631767 803.686979 C 638.662968 806.036585 633.637284 808.265001 628.559661 810.367281 C 623.479565 812.472033 618.352477 814.450649 613.175924 816.303128 C 607.99937 818.153134 602.778298 819.879476 597.517653 821.474735 C 592.257008 823.069994 586.959264 824.536643 581.626895 825.872209 C 576.294525 827.207774 570.930003 828.412257 565.538275 829.485656 C 560.146547 830.556582 554.730086 831.496424 549.293839 832.30271 C 543.855119 833.111469 538.399086 833.784199 532.928214 834.323371 C 527.457341 834.860071 521.974102 835.265687 516.483443 835.535274 C 510.992784 835.80486 505.497179 835.94089 499.9991 835.94089 C 494.501022 835.94089 489.007889 835.80486 483.517231 835.535274 C 478.024099 835.265687 472.543333 834.860071 467.07246 834.323371 C 461.601587 833.784199 456.145554 833.111469 450.706834 832.30271 C 445.268114 831.496424 439.854127 830.556582 434.462399 829.485656 C 429.068197 828.412257 423.706148 827.207774 418.373779 825.872209 C 413.038936 824.536643 407.743666 823.069994 402.480547 821.474735 C 397.219903 819.879476 392.001304 818.153134 386.82475 816.303128 C 381.648196 814.450649 376.521108 812.472033 371.441012 810.367281 C 366.360916 808.265001 361.337705 806.036585 356.366433 803.686979 C 351.397634 801.3349 346.488194 798.864103 341.638112 796.272116 C 336.790503 793.68013 332.007199 790.971899 327.293147 788.144952 C 322.576622 785.318005 317.931821 782.377287 313.361219 779.322799 C 308.790616 776.268311 304.296685 773.104999 299.881899 769.83039 C 295.464639 766.553307 291.13147 763.172347 286.882393 759.685037 C 282.630842 756.197727 278.470803 752.606539 274.397327 748.913947 C 270.323852 745.223829 266.341888 741.432306 262.453908 737.544326 C 258.565928 733.65882 254.776878 729.676855 251.084287 725.60338 C 247.391695 721.529905 243.802981 717.367392 240.31567 713.118314 C 236.825887 708.869237 233.444927 704.536068 230.170318 700.118809 C 226.895709 695.704022 223.729923 691.210091 220.675435 686.637015 C 217.620947 682.066413 214.680229 677.424086 211.855755 672.70756 C 209.028808 667.991035 206.318104 663.210204 203.728591 658.360122 C 201.136604 653.512514 198.663335 648.603073 196.313728 643.631801 C 193.964122 638.663002 191.735706 633.637318 189.630953 628.559695 C 187.528674 623.479599 185.550058 618.350038 183.697579 613.175957 C 181.8451 607.999404 180.121231 602.778331 178.525972 597.517687 C 176.930713 592.257042 175.464064 586.959298 174.128499 581.626929 C 172.792933 576.294559 171.588451 570.930037 170.515052 565.538309 C 169.441653 560.146581 168.50181 554.73012 167.695524 549.293873 C 166.889238 543.855153 166.216509 538.39912 165.677336 532.928247 C 165.138163 527.457375 164.73502 521.974136 164.465434 516.483477 C 164.195847 510.992818 164.059818 505.497213 164.059818 499.999134 C 164.059818 494.501055 164.195847 489.007923 164.465434 483.517264 C 164.73502 478.024132 165.138163 472.543367 165.677336 467.072494 C 166.216509 461.601621 166.889238 456.145588 167.695524 450.706868 C 168.50181 445.268148 169.441653 439.85416 170.515052 434.462432 C 171.588451 429.068231 172.792933 423.706182 174.128499 418.373813 C 175.464064 413.03897 176.930713 407.743699 178.525972 402.480581 C 180.121231 397.219937 181.8451 392.001337 183.697579 386.824784 C 185.550058 381.64823 187.528674 376.521142 189.630953 371.441046 C 191.735706 366.36095 193.964122 361.337739 196.313728 356.366467 C 198.663335 351.397668 201.136604 346.488228 203.728591 341.638146 C 206.318104 336.790537 209.028808 332.007233 211.855755 327.293181 C 214.680229 322.576656 217.620947 317.931855 220.675435 313.361253 C 223.729923 308.79065 226.895709 304.296719 230.170318 299.881933 C 233.444927 295.464673 236.825887 291.131504 240.31567 286.882427 C 243.802981 282.630876 247.391695 278.470836 251.084287 274.397361 C 254.776878 270.323886 258.565928 266.341922 262.453908 262.453942 C 266.341888 258.565961 270.323852 254.776912 274.397327 251.084321 C 278.470803 247.391729 282.630842 243.803014 286.882393 240.315704 C 291.13147 236.82592 295.464639 233.444961 299.881899 230.170352 C 304.296685 226.895742 308.790616 223.729957 313.361219 220.675469 C 317.931821 217.620981 322.576622 214.680263 327.293147 211.855789 C 332.007199 209.028842 336.790503 206.318138 341.638112 203.726151 C 346.488194 201.136638 351.397634 198.663368 356.366433 196.313762 C 361.337705 193.964156 366.360916 191.73574 371.441012 189.630987 C 376.521108 187.528708 381.648196 185.550092 386.82475 183.697613 C 392.001304 181.845134 397.219903 180.121265 402.480547 178.526006 C 407.743666 176.930747 413.038936 175.464098 418.373779 174.128532 C 423.706148 172.792967 429.068197 171.588484 434.462399 170.515085 C 439.854127 169.441686 445.268114 168.501844 450.706834 167.695558 C 456.145554 166.889272 461.601587 166.216543 467.07246 165.67737 C 472.543333 165.138197 478.024099 164.735054 483.517231 164.465468 C 489.007889 164.195881 494.501022 164.059851 499.9991 164.059851 C 505.497179 164.059851 510.992784 164.195881 516.483443 164.465468 C 521.974102 164.735054 527.457341 165.138197 532.928214 165.67737 C 538.399086 166.216543 543.855119 166.889272 549.291366 167.695558 C 554.730086 168.501844 560.146547 169.441686 565.538275 170.515085 C 570.930003 171.588484 576.294525 172.792967 581.626895 174.128532 C 586.959264 175.464098 592.257008 176.930747 597.517653 178.526006 C 602.778298 180.121265 607.99937 181.845134 613.175924 183.697613 C 618.352477 185.550092 623.479565 187.528708 628.559661 189.630987 C 633.637284 191.73574 638.662968 193.964156 643.631767 196.313762 C 648.603039 198.663368 653.51248 201.136638 658.360089 203.726151 C 663.210171 206.318138 667.991001 209.028842 672.707526 211.855789 C 677.424052 214.680263 682.066379 217.620981 686.636982 220.675469 C 691.210057 223.729957 695.703988 226.895742 700.118775 230.170352 C 704.536035 233.444961 708.869203 236.82592 713.118281 240.315704 C 717.367358 243.803014 721.529871 247.391729 725.603346 251.084321 C 729.676822 254.776912 733.658786 258.565961 737.544293 262.453942 C 741.432273 266.341922 745.223795 270.323886 748.916387 274.397361 C 752.606505 278.470836 756.197693 282.630876 759.685003 286.882427 C 763.172314 291.131504 766.553273 295.464673 769.830356 299.881933 C 773.104965 304.296719 776.268277 308.79065 779.322765 313.361253 C 782.377253 317.931855 785.317971 322.576656 788.144918 327.293181 C 790.971866 332.007233 793.680096 336.790537 796.272083 341.638146 C 798.864069 346.488228 801.334866 351.397668 803.686945 356.366467 C 806.036552 361.337739 808.264968 366.36095 810.367247 371.441046 C 812.471999 376.521142 814.450615 381.64823 816.303094 386.824784 C 818.155573 392.001337 819.879442 397.219937 821.474701 402.480581 C 823.06996 407.743699 824.536609 413.03897 825.872175 418.373813 C 827.207741 423.706182 828.412223 429.068231 829.485622 434.462432 C 830.556548 439.85416 831.49639 445.268148 832.302676 450.706868 C 833.111435 456.145588 833.784165 461.601621 834.323338 467.072494 C 834.860037 472.543367 835.265653 478.024132 835.53524 483.517264 C 835.804826 489.007923 835.940856 494.501055 835.940856 499.999134 Z M 835.940856 499.999134 " stroke="#000000" stroke-width="10" stroke-opacity="1" stroke-miterlimit="10"/></g><path fill="#000000" d="M 1333.8125 782.539062 C 1333.503906 788.058594 1333.117188 793.570312 1332.65625 799.078125 L 1285.441406 795.09375 C 1285.867188 790.035156 1286.222656 784.96875 1286.503906 779.898438 Z M 1331.058594 815.3125 C 1330.449219 820.730469 1329.761719 826.144531 1329 831.546875 L 1282.082031 824.933594 C 1282.78125 819.972656 1283.410156 815 1283.972656 810.015625 Z M 1326.464844 847.867188 C 1325.546875 853.265625 1324.554688 858.652344 1323.484375 864.027344 L 1277.015625 854.785156 C 1277.996094 849.847656 1278.910156 844.894531 1279.753906 839.929688 Z M 1320.078125 879.992188 C 1318.859375 885.339844 1317.5625 890.671875 1316.191406 895.980469 L 1270.3125 884.148438 C 1271.570312 879.265625 1272.761719 874.367188 1273.882812 869.453125 Z M 1311.832031 911.949219 C 1310.328125 917.167969 1308.75 922.363281 1307.101562 927.539062 L 1261.957031 913.148438 C 1263.472656 908.394531 1264.921875 903.621094 1266.304688 898.824219 Z M 1301.902344 943.09375 C 1300.085938 948.285156 1298.195312 953.453125 1296.230469 958.59375 L 1251.96875 941.6875 C 1253.773438 936.964844 1255.507812 932.214844 1257.179688 927.441406 Z M 1290.160156 973.84375 C 1288.070312 978.882812 1285.914062 983.890625 1283.683594 988.867188 L 1240.4375 969.507812 C 1242.488281 964.933594 1244.46875 960.332031 1246.390625 955.703125 Z M 1276.757812 1003.78125 C 1274.367188 1008.742188 1271.90625 1013.667969 1269.375 1018.5625 L 1227.289062 996.796875 C 1229.613281 992.300781 1231.875 987.773438 1234.070312 983.210938 Z M 1261.667969 1032.96875 C 1259.019531 1037.753906 1256.308594 1042.5 1253.53125 1047.207031 L 1212.726562 1023.121094 C 1215.28125 1018.792969 1217.773438 1014.429688 1220.207031 1010.035156 Z M 1244.960938 1061.265625 C 1242.042969 1065.90625 1239.058594 1070.503906 1236.011719 1075.0625 L 1196.628906 1048.71875 C 1199.429688 1044.53125 1202.171875 1040.304688 1204.855469 1036.039062 Z M 1226.710938 1088.550781 C 1223.542969 1093.015625 1220.3125 1097.433594 1217.015625 1101.804688 L 1179.171875 1073.296875 C 1182.199219 1069.28125 1185.167969 1065.21875 1188.082031 1061.117188 Z M 1206.929688 1114.808594 C 1203.515625 1119.085938 1200.039062 1123.316406 1196.507812 1127.496094 L 1160.324219 1096.902344 C 1163.574219 1093.0625 1166.765625 1089.175781 1169.902344 1085.246094 Z M 1185.738281 1139.878906 C 1182.085938 1143.957031 1178.378906 1147.988281 1174.613281 1151.964844 L 1140.203125 1119.390625 C 1143.664062 1115.738281 1147.070312 1112.035156 1150.425781 1108.285156 Z M 1163.148438 1163.738281 C 1159.273438 1167.609375 1155.34375 1171.421875 1151.359375 1175.183594 L 1118.835938 1140.726562 C 1122.496094 1137.273438 1126.105469 1133.765625 1129.667969 1130.210938 Z M 1139.257812 1186.289062 C 1135.175781 1189.933594 1131.042969 1193.515625 1126.859375 1197.042969 L 1096.320312 1160.816406 C 1100.167969 1157.574219 1103.964844 1154.28125 1107.714844 1150.933594 Z M 1114.15625 1207.449219 C 1109.867188 1210.867188 1105.527344 1214.222656 1101.144531 1217.515625 L 1072.6875 1179.632812 C 1076.714844 1176.605469 1080.703125 1173.519531 1084.648438 1170.378906 Z M 1087.875 1227.191406 C 1083.417969 1230.347656 1078.917969 1233.441406 1074.375 1236.472656 L 1048.085938 1197.050781 C 1052.261719 1194.265625 1056.398438 1191.425781 1060.496094 1188.523438 Z M 1060.558594 1245.40625 C 1055.910156 1248.320312 1051.222656 1251.167969 1046.492188 1253.953125 L 1022.464844 1213.113281 C 1026.808594 1210.558594 1031.117188 1207.941406 1035.390625 1205.261719 Z M 1032.242188 1262.070312 C 1027.46875 1264.699219 1022.664062 1267.261719 1017.820312 1269.757812 L 996.113281 1227.640625 C 1000.566406 1225.347656 1004.984375 1222.992188 1009.371094 1220.574219 Z M 1003.027344 1277.117188 C 998.089844 1279.488281 993.117188 1281.792969 988.109375 1284.023438 L 968.8125 1240.75 C 973.410156 1238.699219 977.980469 1236.582031 982.523438 1234.402344 Z M 973.082031 1290.476562 C 968.019531 1292.566406 962.929688 1294.582031 957.8125 1296.527344 L 940.96875 1252.242188 C 945.671875 1250.453125 950.347656 1248.597656 955 1246.679688 Z M 942.308594 1302.175781 C 937.144531 1303.972656 931.960938 1305.699219 926.75 1307.351562 L 912.425781 1262.1875 C 917.210938 1260.671875 921.976562 1259.085938 926.71875 1257.433594 Z M 911.160156 1312.058594 C 905.851562 1313.582031 900.523438 1315.027344 895.171875 1316.402344 L 883.40625 1270.503906 C 888.320312 1269.242188 893.21875 1267.914062 898.097656 1266.515625 Z M 879.183594 1320.261719 C 873.878906 1321.464844 868.558594 1322.589844 863.222656 1323.644531 L 854.042969 1277.160156 C 858.945312 1276.191406 863.835938 1275.15625 868.710938 1274.050781 Z M 847.039062 1326.605469 C 841.613281 1327.519531 836.175781 1328.355469 830.722656 1329.117188 L 824.175781 1282.1875 C 829.183594 1281.488281 834.183594 1280.722656 839.171875 1279.882812 Z M 814.496094 1331.148438 C 809.082031 1331.75 803.664062 1332.273438 798.238281 1332.726562 L 794.324219 1285.503906 C 799.308594 1285.09375 804.289062 1284.609375 809.265625 1284.054688 Z M 781.707031 1333.859375 C 776.253906 1334.15625 770.792969 1334.375 765.332031 1334.519531 L 764.085938 1287.15625 C 769.101562 1287.023438 774.121094 1286.820312 779.132812 1286.546875 Z M 749.121094 1334.722656 C 743.710938 1334.714844 738.304688 1334.632812 732.898438 1334.472656 L 734.277344 1287.113281 C 739.246094 1287.257812 744.21875 1287.332031 749.1875 1287.339844 Z M 716.503906 1333.765625 C 710.984375 1333.449219 705.46875 1333.054688 699.960938 1332.582031 L 704.011719 1285.375 C 709.070312 1285.808594 714.140625 1286.171875 719.210938 1286.460938 Z M 683.746094 1330.964844 C 678.324219 1330.347656 672.910156 1329.652344 667.507812 1328.882812 L 674.1875 1281.976562 C 679.152344 1282.683594 684.125 1283.320312 689.109375 1283.886719 Z M 651.183594 1326.324219 C 645.789062 1325.398438 640.410156 1324.398438 635.042969 1323.324219 L 644.351562 1276.867188 C 649.285156 1277.855469 654.226562 1278.773438 659.183594 1279.621094 Z M 619.078125 1319.894531 C 613.730469 1318.664062 608.398438 1317.363281 603.085938 1315.984375 L 614.984375 1270.121094 C 619.867188 1271.386719 624.765625 1272.582031 629.679688 1273.710938 Z M 587.136719 1311.605469 C 581.921875 1310.09375 576.726562 1308.507812 571.550781 1306.851562 L 586.003906 1261.726562 C 590.757812 1263.25 595.535156 1264.707031 600.328125 1266.097656 Z M 556 1301.625 C 550.804688 1299.800781 545.640625 1297.902344 540.5 1295.929688 L 557.46875 1251.691406 C 562.195312 1253.503906 566.941406 1255.25 571.714844 1256.925781 Z M 525.273438 1289.84375 C 520.234375 1287.746094 515.230469 1285.582031 510.253906 1283.347656 L 529.675781 1240.128906 C 534.246094 1242.183594 538.847656 1244.171875 543.476562 1246.097656 Z M 495.347656 1276.394531 C 490.390625 1273.996094 485.46875 1271.53125 480.582031 1268.996094 L 502.40625 1226.941406 C 506.898438 1229.269531 511.421875 1231.535156 515.972656 1233.738281 Z M 466.183594 1261.265625 C 461.402344 1258.613281 456.660156 1255.890625 451.953125 1253.105469 L 476.097656 1212.335938 C 480.421875 1214.898438 484.78125 1217.398438 489.175781 1219.835938 Z M 437.90625 1244.519531 C 433.273438 1241.59375 428.679688 1238.605469 424.128906 1235.550781 L 450.527344 1196.203125 C 454.710938 1199.011719 458.929688 1201.757812 463.191406 1204.445312 Z M 410.648438 1226.230469 C 406.191406 1223.054688 401.777344 1219.816406 397.40625 1216.515625 L 425.972656 1178.710938 C 429.984375 1181.746094 434.042969 1184.722656 438.140625 1187.640625 Z M 384.417969 1206.410156 C 380.144531 1202.992188 375.921875 1199.511719 371.75 1195.972656 L 402.390625 1159.832031 C 406.226562 1163.082031 410.109375 1166.28125 414.035156 1169.425781 Z M 359.378906 1185.183594 C 355.304688 1181.523438 351.28125 1177.8125 347.308594 1174.039062 L 379.933594 1139.679688 C 383.582031 1143.144531 387.28125 1146.554688 391.023438 1149.914062 Z M 335.554688 1162.5625 C 331.6875 1158.679688 327.878906 1154.746094 324.125 1150.753906 L 358.625 1118.28125 C 362.074219 1121.945312 365.578125 1125.5625 369.128906 1129.128906 Z M 313.035156 1138.640625 C 309.398438 1134.550781 305.820312 1130.414062 302.300781 1126.226562 L 338.570312 1095.738281 C 341.804688 1099.585938 345.09375 1103.390625 348.433594 1107.144531 Z M 291.910156 1113.503906 C 288.5 1109.210938 285.152344 1104.867188 281.863281 1100.476562 L 319.789062 1072.074219 C 322.808594 1076.109375 325.886719 1080.101562 329.019531 1084.046875 Z M 272.207031 1087.199219 C 269.058594 1082.738281 265.972656 1078.234375 262.949219 1073.683594 L 302.40625 1047.453125 C 305.183594 1051.632812 308.019531 1055.773438 310.914062 1059.871094 Z M 254.027344 1059.851562 C 251.121094 1055.199219 248.28125 1050.507812 245.503906 1045.773438 L 286.375 1021.804688 C 288.925781 1026.152344 291.539062 1030.464844 294.210938 1034.742188 Z M 237.410156 1031.515625 C 234.785156 1026.738281 232.226562 1021.921875 229.734375 1017.074219 L 271.886719 995.429688 C 274.175781 999.886719 276.523438 1004.3125 278.9375 1008.703125 Z M 222.398438 1002.277344 C 220.035156 997.332031 217.742188 992.359375 215.515625 987.351562 L 258.816406 968.113281 C 260.863281 972.71875 262.96875 977.289062 265.144531 981.832031 Z M 209.089844 972.316406 C 207.003906 967.25 204.992188 962.152344 203.050781 957.027344 L 247.363281 940.25 C 249.144531 944.957031 250.996094 949.640625 252.910156 954.300781 Z M 197.429688 941.519531 C 195.636719 936.359375 193.921875 931.171875 192.277344 925.960938 L 237.460938 911.699219 C 238.972656 916.488281 240.550781 921.253906 242.195312 926 Z M 187.589844 910.359375 C 186.074219 905.046875 184.632812 899.714844 183.269531 894.363281 L 229.183594 882.660156 C 230.4375 887.582031 231.761719 892.480469 233.152344 897.363281 Z M 179.433594 878.375 C 178.238281 873.070312 177.121094 867.75 176.074219 862.414062 L 222.570312 853.300781 C 223.53125 858.203125 224.5625 863.09375 225.660156 867.96875 Z M 173.132812 846.210938 C 172.230469 840.785156 171.398438 835.347656 170.648438 829.898438 L 217.585938 823.417969 C 218.273438 828.425781 219.035156 833.425781 219.871094 838.410156 Z M 168.640625 813.675781 C 168.042969 808.257812 167.527344 802.832031 167.085938 797.398438 L 214.308594 793.550781 C 214.714844 798.546875 215.191406 803.53125 215.738281 808.511719 Z M 165.972656 780.875 C 165.683594 775.421875 165.472656 769.964844 165.335938 764.507812 L 212.703125 763.328125 C 212.828125 768.34375 213.023438 773.355469 213.289062 778.367188 Z M 165.15625 748.304688 C 165.171875 742.894531 165.261719 737.480469 165.429688 732.070312 L 212.789062 733.519531 C 212.636719 738.492188 212.550781 743.464844 212.539062 748.4375 Z M 166.160156 715.671875 C 166.484375 710.148438 166.886719 704.628906 167.367188 699.121094 L 214.570312 703.238281 C 214.128906 708.300781 213.757812 713.371094 213.460938 718.445312 Z M 169.007812 682.925781 C 169.632812 677.503906 170.335938 672.089844 171.113281 666.683594 L 218.011719 673.429688 C 217.296875 678.394531 216.652344 683.371094 216.078125 688.355469 Z M 173.695312 650.355469 C 174.628906 644.96875 175.632812 639.59375 176.714844 634.234375 L 223.160156 643.609375 C 222.167969 648.535156 221.242188 653.472656 220.386719 658.425781 Z M 180.171875 618.269531 C 181.40625 612.921875 182.71875 607.589844 184.105469 602.277344 L 229.949219 614.242188 C 228.675781 619.121094 227.472656 624.023438 226.335938 628.9375 Z M 188.503906 586.347656 C 190.023438 581.132812 191.617188 575.9375 193.28125 570.761719 L 238.382812 585.28125 C 236.851562 590.035156 235.390625 594.808594 233.992188 599.601562 Z M 198.527344 555.214844 C 200.363281 550.019531 202.269531 544.855469 204.246094 539.71875 L 248.460938 556.75 C 246.640625 561.472656 244.890625 566.21875 243.207031 570.992188 Z M 210.351562 524.507812 C 212.457031 519.476562 214.628906 514.46875 216.871094 509.496094 L 260.0625 528.976562 C 258.003906 533.546875 256.003906 538.148438 254.070312 542.773438 Z M 223.847656 494.59375 C 226.25 489.644531 228.722656 484.730469 231.261719 479.851562 L 273.289062 501.734375 C 270.953125 506.21875 268.679688 510.734375 266.472656 515.285156 Z M 239.015625 465.460938 C 241.675781 460.683594 244.402344 455.941406 247.195312 451.238281 L 287.929688 475.441406 C 285.363281 479.761719 282.855469 484.117188 280.410156 488.511719 Z M 255.804688 437.203125 C 258.734375 432.570312 261.730469 427.984375 264.789062 423.441406 L 304.097656 449.894531 C 301.285156 454.070312 298.535156 458.289062 295.84375 462.542969 Z M 274.128906 409.972656 C 277.3125 405.515625 280.558594 401.105469 283.863281 396.742188 L 321.628906 425.359375 C 318.589844 429.371094 315.605469 433.425781 312.679688 437.519531 Z M 293.988281 383.765625 C 297.414062 379.5 300.898438 375.285156 304.445312 371.117188 L 340.539062 401.808594 C 337.28125 405.640625 334.078125 409.515625 330.933594 413.4375 Z M 315.25 358.761719 C 318.914062 354.691406 322.632812 350.671875 326.410156 346.707031 L 360.726562 379.378906 C 357.257812 383.023438 353.839844 386.714844 350.472656 390.457031 Z M 337.90625 334.96875 C 341.792969 331.109375 345.734375 327.304688 349.726562 323.554688 L 382.15625 358.101562 C 378.484375 361.546875 374.863281 365.042969 371.292969 368.589844 Z M 361.859375 312.484375 C 365.953125 308.851562 370.09375 305.28125 374.289062 301.765625 L 404.722656 338.078125 C 400.871094 341.308594 397.0625 344.59375 393.304688 347.929688 Z M 387.027344 291.390625 C 391.324219 287.988281 395.671875 284.644531 400.066406 281.363281 L 428.414062 319.328125 C 424.378906 322.34375 420.382812 325.417969 416.429688 328.546875 Z M 413.359375 271.726562 C 417.824219 268.585938 422.332031 265.507812 426.882812 262.488281 L 453.058594 301.984375 C 448.875 304.757812 444.734375 307.585938 440.628906 310.472656 Z M 440.734375 253.585938 C 445.390625 250.6875 450.085938 247.855469 454.820312 245.085938 L 478.730469 285.992188 C 474.378906 288.535156 470.066406 291.136719 465.789062 293.804688 Z M 469.085938 237.011719 C 473.871094 234.390625 478.691406 231.839844 483.550781 229.351562 L 505.132812 271.535156 C 500.671875 273.816406 496.238281 276.164062 491.84375 278.570312 Z M 498.355469 222.039062 C 503.296875 219.683594 508.277344 217.398438 513.285156 215.179688 L 532.460938 258.507812 C 527.855469 260.546875 523.28125 262.648438 518.738281 264.8125 Z M 528.324219 208.773438 C 533.398438 206.695312 538.5 204.691406 543.632812 202.753906 L 560.347656 247.089844 C 555.632812 248.867188 550.941406 250.710938 546.28125 252.621094 Z M 559.144531 197.15625 C 564.304688 195.375 569.492188 193.664062 574.703125 192.027344 L 588.902344 237.230469 C 584.113281 238.734375 579.347656 240.308594 574.601562 241.945312 Z M 590.328125 187.359375 C 595.640625 185.851562 600.972656 184.421875 606.324219 183.0625 L 617.960938 228.996094 C 613.042969 230.242188 608.140625 231.554688 603.257812 232.941406 Z M 622.3125 179.253906 C 627.617188 178.066406 632.933594 176.953125 638.269531 175.917969 L 647.316406 222.425781 C 642.414062 223.378906 637.527344 224.402344 632.652344 225.492188 Z M 654.492188 172.996094 C 659.917969 172.097656 665.355469 171.277344 670.800781 170.535156 L 677.214844 217.480469 C 672.207031 218.164062 667.210938 218.917969 662.226562 219.742188 Z M 687.019531 168.550781 C 692.445312 167.960938 697.878906 167.453125 703.320312 167.015625 L 707.097656 214.246094 C 702.097656 214.648438 697.105469 215.117188 692.117188 215.65625 Z M 719.835938 165.929688 C 725.285156 165.648438 730.738281 165.445312 736.195312 165.316406 L 737.308594 212.683594 C 732.292969 212.804688 727.28125 212.992188 722.273438 213.25 Z M 752.390625 165.160156 C 757.804688 165.183594 763.21875 165.28125 768.632812 165.453125 L 767.117188 212.8125 C 762.144531 212.652344 757.167969 212.5625 752.191406 212.542969 Z M 785.042969 166.210938 C 790.566406 166.542969 796.085938 166.953125 801.597656 167.441406 L 797.414062 214.636719 C 792.347656 214.1875 787.273438 213.8125 782.195312 213.503906 Z M 817.769531 169.101562 C 823.195312 169.734375 828.613281 170.445312 834.019531 171.230469 L 827.207031 218.121094 C 822.238281 217.398438 817.261719 216.746094 812.273438 216.164062 Z M 850.351562 173.839844 C 855.730469 174.777344 861.097656 175.789062 866.449219 176.878906 L 857.007812 223.3125 C 852.089844 222.3125 847.160156 221.378906 842.214844 220.519531 Z M 882.417969 180.359375 C 887.765625 181.601562 893.097656 182.921875 898.410156 184.316406 L 886.378906 230.144531 C 881.5 228.863281 876.597656 227.652344 871.683594 226.507812 Z M 914.320312 188.734375 C 919.535156 190.261719 924.730469 191.863281 929.902344 193.535156 L 915.320312 238.617188 C 910.566406 237.078125 905.792969 235.609375 901 234.203125 Z M 945.449219 198.804688 C 950.640625 200.648438 955.804688 202.5625 960.941406 204.550781 L 943.84375 248.738281 C 939.125 246.914062 934.378906 245.152344 929.609375 243.460938 Z M 976.128906 210.671875 C 981.164062 212.78125 986.164062 214.964844 991.136719 217.214844 L 971.59375 260.378906 C 967.027344 258.308594 962.429688 256.304688 957.804688 254.363281 Z M 1006.035156 224.210938 C 1010.976562 226.621094 1015.886719 229.097656 1020.757812 231.644531 L 998.816406 273.640625 C 994.335938 271.300781 989.824219 269.023438 985.285156 266.808594 Z M 1035.140625 239.417969 C 1039.917969 242.085938 1044.65625 244.820312 1049.355469 247.621094 L 1025.09375 288.320312 C 1020.773438 285.746094 1016.421875 283.234375 1012.03125 280.78125 Z M 1063.378906 256.253906 C 1068.003906 259.1875 1072.585938 262.1875 1077.125 265.25 L 1050.613281 304.523438 C 1046.445312 301.707031 1042.234375 298.949219 1037.984375 296.253906 Z M 1090.582031 274.613281 C 1095.03125 277.800781 1099.4375 281.054688 1103.796875 284.367188 L 1075.125 322.089844 C 1071.121094 319.046875 1067.070312 316.054688 1062.980469 313.125 Z M 1116.761719 294.511719 C 1121.019531 297.941406 1125.230469 301.433594 1129.394531 304.980469 L 1098.648438 341.035156 C 1094.824219 337.773438 1090.953125 334.566406 1087.039062 331.410156 Z M 1141.734375 315.808594 C 1145.796875 319.476562 1149.808594 323.203125 1153.773438 326.984375 L 1121.050781 361.253906 C 1117.414062 357.777344 1113.726562 354.355469 1109.988281 350.984375 Z M 1165.496094 338.496094 C 1169.351562 342.390625 1173.148438 346.335938 1176.890625 350.335938 L 1142.296875 382.710938 C 1138.859375 379.035156 1135.367188 375.410156 1131.824219 371.832031 Z M 1187.945312 362.480469 C 1191.570312 366.578125 1195.136719 370.726562 1198.644531 374.925781 L 1162.289062 405.308594 C 1159.0625 401.453125 1155.785156 397.640625 1152.457031 393.875 Z M 1209.003906 387.679688 C 1212.402344 391.984375 1215.738281 396.335938 1219.011719 400.734375 L 1181.003906 429.027344 C 1177.992188 424.984375 1174.929688 420.984375 1171.808594 417.03125 Z M 1228.628906 414.039062 C 1231.761719 418.507812 1234.835938 423.019531 1237.84375 427.574219 L 1198.3125 453.691406 C 1195.546875 449.503906 1192.722656 445.359375 1189.84375 441.253906 Z M 1246.730469 441.441406 C 1249.625 446.101562 1252.449219 450.800781 1255.210938 455.539062 L 1214.273438 479.390625 C 1211.734375 475.039062 1209.136719 470.71875 1206.480469 466.4375 Z M 1263.261719 469.8125 C 1265.878906 474.605469 1268.425781 479.429688 1270.90625 484.296875 L 1228.695312 505.820312 C 1226.414062 501.351562 1224.074219 496.914062 1221.671875 492.511719 Z M 1278.195312 499.105469 C 1280.542969 504.050781 1282.824219 509.03125 1285.03125 514.042969 L 1241.675781 533.15625 C 1239.648438 528.550781 1237.554688 523.976562 1235.394531 519.429688 Z M 1291.414062 529.085938 C 1293.488281 534.167969 1295.488281 539.277344 1297.417969 544.414062 L 1253.058594 561.066406 C 1251.285156 556.347656 1249.445312 551.652344 1247.542969 546.980469 Z M 1302.992188 559.929688 C 1304.765625 565.09375 1306.46875 570.28125 1308.097656 575.492188 L 1262.875 589.628906 C 1261.375 584.839844 1259.8125 580.070312 1258.183594 575.324219 Z M 1312.75 591.136719 C 1314.246094 596.449219 1315.671875 601.78125 1317.019531 607.132812 L 1271.070312 618.707031 C 1269.832031 613.785156 1268.523438 608.882812 1267.148438 604.003906 Z M 1320.804688 623.121094 C 1321.984375 628.425781 1323.089844 633.742188 1324.117188 639.074219 L 1277.59375 648.058594 C 1276.648438 643.15625 1275.632812 638.265625 1274.550781 633.394531 Z M 1327.015625 655.320312 C 1327.90625 660.746094 1328.71875 666.179688 1329.457031 671.625 L 1282.5 677.96875 C 1281.824219 672.964844 1281.078125 667.972656 1280.261719 662.988281 Z M 1331.414062 687.835938 C 1331.996094 693.269531 1332.5 698.710938 1332.929688 704.160156 L 1285.691406 707.867188 C 1285.296875 702.863281 1284.835938 697.863281 1284.300781 692.867188 Z M 1333.988281 720.664062 C 1334.261719 726.113281 1334.460938 731.5625 1334.578125 737.019531 L 1287.210938 738.066406 C 1287.097656 733.054688 1286.917969 728.046875 1286.667969 723.039062 Z M 1334.722656 749.9375 C 1334.722656 755.347656 1334.648438 760.75 1334.5 766.15625 L 1287.132812 764.84375 C 1287.273438 759.875 1287.339844 754.90625 1287.339844 749.9375 Z M 1334.722656 749.9375 " fill-opacity="1" fill-rule="nonzero"/><path fill="#000000" d="M 633.933594 727.734375 L 451.796875 453.15625 L 747.082031 748.4375 Z M 633.933594 727.734375 " fill-opacity="1" fill-rule="nonzero"/><path fill="#000000" d="M 457.878906 460.59375 L 744.222656 746.9375 L 634.5 726.847656 L 457.878906 460.578125 M 445.703125 445.703125 L 633.363281 728.601562 L 749.9375 749.9375 Z M 445.703125 445.703125 " fill-opacity="1" fill-rule="nonzero"/><path fill="#ffffff" d="M 453.15625 451.796875 L 727.734375 633.933594 L 748.4375 747.082031 Z M 453.15625 451.796875 " fill-opacity="1" fill-rule="nonzero"/><path fill="#000000" d="M 460.59375 457.878906 L 726.863281 634.5 L 746.953125 744.222656 L 460.609375 457.878906 M 445.703125 445.703125 L 749.9375 749.9375 L 728.601562 633.363281 Z M 445.703125 445.703125 " fill-opacity="1" fill-rule="nonzero"/><path fill="#000000" d="M 748.4375 752.796875 L 727.734375 865.945312 L 453.15625 1048.078125 Z M 748.4375 752.796875 " fill-opacity="1" fill-rule="nonzero"/><path fill="#000000" d="M 746.9375 755.640625 L 726.847656 865.359375 L 460.578125 1041.984375 L 746.921875 755.640625 M 749.9375 749.9375 L 445.703125 1054.175781 L 728.601562 866.511719 Z M 749.9375 749.9375 " fill-opacity="1" fill-rule="nonzero"/><path fill="#ffffff" d="M 633.933594 772.144531 L 747.082031 751.4375 L 451.796875 1046.722656 Z M 633.933594 772.144531 " fill-opacity="1" fill-rule="nonzero"/><path fill="#000000" d="M 744.238281 752.941406 L 457.894531 1039.28125 L 634.515625 773.015625 L 744.238281 752.925781 M 749.9375 749.9375 L 633.363281 771.277344 L 445.703125 1054.175781 Z M 749.9375 749.9375 " fill-opacity="1" fill-rule="nonzero"/><path fill="#000000" d="M 752.796875 751.4375 L 865.945312 772.144531 L 1048.078125 1046.722656 Z M 752.796875 751.4375 " fill-opacity="1" fill-rule="nonzero"/><path fill="#000000" d="M 755.640625 752.941406 L 865.359375 773.03125 L 1041.984375 1039.296875 L 755.640625 752.957031 M 749.9375 749.9375 L 1054.175781 1054.175781 L 866.511719 771.277344 Z M 749.9375 749.9375 " fill-opacity="1" fill-rule="nonzero"/><path fill="#ffffff" d="M 772.144531 865.945312 L 751.4375 752.796875 L 1046.722656 1048.078125 Z M 772.144531 865.945312 " fill-opacity="1" fill-rule="nonzero"/><path fill="#000000" d="M 752.941406 755.640625 L 1039.28125 1041.984375 L 773.015625 865.359375 L 752.925781 755.640625 M 749.9375 749.9375 L 771.277344 866.511719 L 1054.175781 1054.175781 Z M 749.9375 749.9375 " fill-opacity="1" fill-rule="nonzero"/><path fill="#000000" d="M 772.144531 633.933594 L 1046.722656 451.796875 L 751.4375 747.082031 Z M 772.144531 633.933594 " fill-opacity="1" fill-rule="nonzero"/><path fill="#000000" d="M 1039.28125 457.878906 L 752.941406 744.222656 L 773.03125 634.5 L 1039.296875 457.878906 M 1054.175781 445.703125 L 771.277344 633.363281 L 749.9375 749.9375 Z M 1054.175781 445.703125 " fill-opacity="1" fill-rule="nonzero"/><path fill="#ffffff" d="M 1048.078125 453.15625 L 865.945312 727.734375 L 752.796875 748.4375 Z M 1048.078125 453.15625 " fill-opacity="1" fill-rule="nonzero"/><path fill="#000000" d="M 1042 460.59375 L 865.375 726.863281 L 755.65625 746.953125 L 1042 460.609375 M 1054.175781 445.703125 L 749.9375 749.9375 L 866.511719 728.601562 Z M 1054.175781 445.703125 " fill-opacity="1" fill-rule="nonzero"/><path fill="#000000" d="M 56.917969 751.519531 L 744.867188 751.519531 L 588.9375 859.199219 Z M 56.917969 751.519531 " fill-opacity="1" fill-rule="nonzero"/><g clip-path="url(#7654cc78f9)"><path fill="#000000" d="M 739.800781 753.097656 L 588.589844 857.511719 L 72.683594 753.097656 L 739.800781 753.097656 M 749.9375 749.9375 L 41.15625 749.9375 L 589.285156 860.875 Z M 749.9375 749.9375 " fill-opacity="1" fill-rule="nonzero"/></g><path fill="#ffffff" d="M 56.917969 748.359375 L 588.9375 640.675781 L 744.867188 748.359375 Z M 56.917969 748.359375 " fill-opacity="1" fill-rule="nonzero"/><g clip-path="url(#8afd3c128b)"><path fill="#000000" d="M 588.589844 642.367188 L 739.800781 746.78125 L 72.683594 746.78125 L 588.589844 642.367188 M 589.285156 639.003906 L 41.15625 749.9375 L 749.9375 749.9375 Z M 589.285156 639.003906 " fill-opacity="1" fill-rule="nonzero"/></g><path fill="#000000" d="M 751.519531 755.007812 L 859.199219 910.941406 L 751.519531 1442.957031 Z M 751.519531 755.007812 " fill-opacity="1" fill-rule="nonzero"/><g clip-path="url(#4f595d2d9e)"><path fill="#000000" d="M 753.097656 760.078125 L 857.511719 911.289062 L 753.097656 1427.195312 L 753.097656 760.078125 M 749.9375 749.9375 L 749.9375 1458.71875 L 860.875 910.59375 Z M 749.9375 749.9375 " fill-opacity="1" fill-rule="nonzero"/></g><path fill="#ffffff" d="M 640.675781 910.941406 L 748.359375 755.007812 L 748.359375 1442.957031 Z M 640.675781 910.941406 " fill-opacity="1" fill-rule="nonzero"/><g clip-path="url(#4a53a838bc)"><path fill="#000000" d="M 746.78125 760.078125 L 746.78125 1427.195312 L 642.367188 911.289062 L 746.78125 760.078125 M 749.9375 749.9375 L 639.003906 910.59375 L 749.9375 1458.71875 Z M 749.9375 749.9375 " fill-opacity="1" fill-rule="nonzero"/></g><path fill="#000000" d="M 755.007812 748.359375 L 910.941406 640.675781 L 1442.957031 748.359375 Z M 755.007812 748.359375 " fill-opacity="1" fill-rule="nonzero"/><g clip-path="url(#492da8c330)"><path fill="#000000" d="M 911.289062 642.367188 L 1427.195312 746.78125 L 760.078125 746.78125 L 911.289062 642.367188 M 910.59375 639.003906 L 749.9375 749.9375 L 1458.71875 749.9375 Z M 910.59375 639.003906 " fill-opacity="1" fill-rule="nonzero"/></g><path fill="#ffffff" d="M 755.007812 751.519531 L 1442.957031 751.519531 L 910.941406 859.199219 Z M 755.007812 751.519531 " fill-opacity="1" fill-rule="nonzero"/><g clip-path="url(#9c58ff891a)"><path fill="#000000" d="M 1427.195312 753.097656 L 911.289062 857.511719 L 760.078125 753.097656 L 1427.195312 753.097656 M 1458.71875 749.9375 L 749.9375 749.9375 L 910.59375 860.875 Z M 1458.71875 749.9375 " fill-opacity="1" fill-rule="nonzero"/></g><path fill="#000000" d="M 640.675781 588.9375 L 748.359375 56.917969 L 748.359375 744.867188 Z M 640.675781 588.9375 " fill-opacity="1" fill-rule="nonzero"/><g clip-path="url(#57844f7ea1)"><path fill="#000000" d="M 746.78125 72.683594 L 746.78125 739.800781 L 642.367188 588.589844 L 746.78125 72.683594 M 749.9375 41.15625 L 639.003906 589.285156 L 749.9375 749.9375 Z M 749.9375 41.15625 " fill-opacity="1" fill-rule="nonzero"/></g><path fill="#ffffff" d="M 751.519531 56.917969 L 859.199219 588.9375 L 751.519531 744.867188 Z M 751.519531 56.917969 " fill-opacity="1" fill-rule="nonzero"/><g clip-path="url(#7ce365f928)"><path fill="#000000" d="M 753.097656 72.683594 L 857.511719 588.589844 L 753.097656 739.800781 L 753.097656 72.683594 M 749.9375 41.15625 L 749.9375 749.9375 L 860.875 589.285156 Z M 749.9375 41.15625 " fill-opacity="1" fill-rule="nonzero"/></g><path stroke-linecap="butt" transform="matrix(1.579387, 0, 0, 1.579387, -39.754563, -39.754616)" fill-opacity="1" fill="#ffffff" fill-rule="nonzero" stroke-linejoin="miter" d="M 618.189241 499.999134 C 618.189241 501.933231 618.142249 503.867328 618.048265 505.798952 C 617.951807 507.730575 617.810831 509.659726 617.620389 511.583929 C 617.432421 513.510607 617.194987 515.429864 616.910561 517.341701 C 616.626135 519.256012 616.29719 521.16043 615.91878 523.057428 C 615.542843 524.954426 615.11744 526.84153 614.647519 528.718742 C 614.177598 530.593481 613.663158 532.458326 613.101726 534.308332 C 612.540293 536.160811 611.931869 537.995977 611.281399 539.816304 C 610.628456 541.639103 609.933467 543.442117 609.193959 545.230291 C 608.451978 547.015992 607.670425 548.78438 606.84188 550.532981 C 606.015808 552.281583 605.145217 554.007925 604.235053 555.714481 C 603.322417 557.421038 602.370208 559.102861 601.375954 560.762425 C 600.379226 562.421989 599.345399 564.054347 598.272 565.661972 C 597.196128 567.272071 596.083156 568.85249 594.930613 570.405704 C 593.778069 571.958917 592.588426 573.482451 591.361684 574.978779 C 590.134943 576.475108 588.871102 577.939283 587.572635 579.371307 C 586.274169 580.805803 584.941076 582.205674 583.573358 583.573392 C 582.20564 584.94111 580.805769 586.274202 579.371273 587.572669 C 577.93925 588.871136 576.475074 590.134976 574.978746 591.361718 C 573.484891 592.58846 571.958883 593.778103 570.40567 594.930647 C 568.852457 596.08319 567.272037 597.196162 565.661939 598.272034 C 564.054313 599.345433 562.421955 600.37926 560.762391 601.375987 C 559.102827 602.370242 557.421004 603.322451 555.714448 604.235087 C 554.007892 605.145251 552.281549 606.015841 550.532948 606.841914 C 548.784346 607.670459 547.015958 608.452012 545.230257 609.193993 C 543.442083 609.933501 541.63907 610.62849 539.81627 611.281433 C 537.995943 611.931903 536.160777 612.540327 534.308298 613.101759 C 532.458292 613.663192 530.593447 614.177632 528.718708 614.647553 C 526.841497 615.117474 524.954392 615.540403 523.057394 615.918814 C 521.160396 616.297224 519.255978 616.626169 517.341668 616.910595 C 515.42983 617.195021 513.510573 617.432455 511.583896 617.620423 C 509.659692 617.810865 507.730541 617.951841 505.798918 618.048299 C 503.867294 618.142283 501.933197 618.189275 499.9991 618.189275 C 498.065003 618.189275 496.13338 618.142283 494.201756 618.048299 C 492.267659 617.951841 490.340982 617.810865 488.414305 617.620423 C 486.490101 617.432455 484.570844 617.195021 482.659006 616.910595 C 480.744695 616.626169 478.840278 616.297224 476.94328 615.918814 C 475.046282 615.540403 473.159177 615.117474 471.281965 614.647553 C 469.404753 614.177632 467.542381 613.663192 465.692376 613.101759 C 463.839897 612.540327 462.00473 611.931903 460.181931 611.281433 C 458.361604 610.62849 456.55859 609.933501 454.770416 609.193993 C 452.984716 608.452012 451.216328 607.670459 449.467726 606.841914 C 447.719124 606.015841 445.990309 605.145251 444.286226 604.235087 C 442.57967 603.322451 440.897846 602.370242 439.238282 601.375987 C 437.578718 600.37926 435.94636 599.345433 434.336262 598.272034 C 432.728636 597.196162 431.148217 596.08319 429.595004 594.930647 C 428.04179 593.778103 426.515783 592.58846 425.021928 591.361718 C 423.5256 590.134976 422.061424 588.871136 420.629401 587.572669 C 419.194904 586.274202 417.795034 584.94111 416.427316 583.573392 C 415.059597 582.205674 413.726505 580.805803 412.428038 579.371307 C 411.127099 577.939283 409.865731 576.475108 408.638989 574.978779 C 407.409774 573.484925 406.220131 571.958917 405.070061 570.405704 C 403.917517 568.85249 402.802073 567.272071 401.728673 565.661972 C 400.652801 564.054347 399.618974 562.421989 398.62472 560.762425 C 397.630466 559.102861 396.678257 557.421038 395.76562 555.714481 C 394.852984 554.007925 393.984866 552.281583 393.156321 550.532981 C 392.330248 548.78438 391.546222 547.015992 390.806714 545.230291 C 390.067207 543.442117 389.369745 541.639103 388.719275 539.816304 C 388.066331 537.995977 387.46038 536.160811 386.898948 534.308332 C 386.337516 532.458326 385.823076 530.593481 385.353155 528.718742 C 384.88076 526.84153 384.457831 524.954426 384.081894 523.057428 C 383.703484 521.16043 383.372065 519.256012 383.090113 517.341701 C 382.805687 515.429864 382.568253 513.510607 382.380284 511.583929 C 382.189843 509.659726 382.046393 507.730575 381.952409 505.798952 C 381.858424 503.867328 381.808959 501.933231 381.808959 499.999134 C 381.808959 498.065037 381.858424 496.133413 381.952409 494.20179 C 382.046393 492.267693 382.189843 490.341016 382.380284 488.414338 C 382.568253 486.490135 382.805687 484.570877 383.090113 482.65904 C 383.372065 480.744729 383.703484 478.840311 384.081894 476.943313 C 384.457831 475.046316 384.88076 473.159211 385.353155 471.281999 C 385.823076 469.404787 386.337516 467.542415 386.898948 465.692409 C 387.46038 463.83993 388.066331 462.004764 388.719275 460.181964 C 389.369745 458.361638 390.067207 456.558624 390.806714 454.77045 C 391.546222 452.984749 392.330248 451.216362 393.156321 449.46776 C 393.984866 447.719158 394.852984 445.990343 395.76562 444.28626 C 396.678257 442.579704 397.630466 440.89788 398.62472 439.238316 C 399.618974 437.578752 400.652801 435.946394 401.728673 434.336296 C 402.802073 432.72867 403.917517 431.148251 405.070061 429.595037 C 406.220131 428.041824 407.409774 426.515817 408.638989 425.021962 C 409.865731 423.525634 411.127099 422.061458 412.428038 420.629435 C 413.726505 419.194938 415.059597 417.795068 416.427316 416.427349 C 417.795034 415.059631 419.194904 413.726539 420.629401 412.428072 C 422.061424 411.127132 423.5256 409.865765 425.021928 408.639023 C 426.515783 407.409808 428.04179 406.220165 429.595004 405.070095 C 431.148217 403.917551 432.728636 402.802106 434.336262 401.728707 C 435.94636 400.652835 437.578718 399.619008 439.238282 398.624754 C 440.897846 397.630499 442.57967 396.67829 444.286226 395.765654 C 445.990309 394.853017 447.719124 393.9849 449.467726 393.156354 C 451.216328 392.330282 452.984716 391.546256 454.770416 390.806748 C 456.55859 390.06724 458.361604 389.369778 460.181931 388.719308 C 462.00473 388.066365 463.839897 387.460414 465.692376 386.898982 C 467.542381 386.33755 469.404753 385.82311 471.281965 385.353188 C 473.159177 384.880794 475.046282 384.457865 476.94328 384.081928 C 478.840278 383.703517 480.744695 383.372099 482.659006 383.090146 C 484.570844 382.80572 486.490101 382.568287 488.414305 382.380318 C 490.340982 382.189876 492.267659 382.046427 494.201756 381.952442 C 496.13338 381.858458 498.065003 381.808993 499.9991 381.808993 C 501.933197 381.808993 503.867294 381.858458 505.798918 381.952442 C 507.730541 382.046427 509.659692 382.189876 511.583896 382.380318 C 513.510573 382.568287 515.42983 382.80572 517.341668 383.090146 C 519.255978 383.372099 521.160396 383.703517 523.057394 384.081928 C 524.954392 384.457865 526.841497 384.883267 528.718708 385.353188 C 530.593447 385.82311 532.458292 386.33755 534.308298 386.898982 C 536.160777 387.460414 537.995943 388.066365 539.81627 388.719308 C 541.63907 389.369778 543.442083 390.06724 545.230257 390.806748 C 547.015958 391.546256 548.784346 392.330282 550.532948 393.156354 C 552.281549 393.9849 554.007892 394.853017 555.714448 395.765654 C 557.421004 396.67829 559.102827 397.630499 560.762391 398.624754 C 562.421955 399.619008 564.054313 400.652835 565.661939 401.728707 C 567.272037 402.802106 568.852457 403.917551 570.40567 405.067621 C 571.958883 406.220165 573.482418 407.409808 574.978746 408.639023 C 576.475074 409.865765 577.93925 411.127132 579.371273 412.428072 C 580.805769 413.726539 582.20564 415.059631 583.573358 416.427349 C 584.941076 417.795068 586.274169 419.194938 587.572635 420.629435 C 588.871102 422.061458 590.134943 423.525634 591.361684 425.021962 C 592.588426 426.515817 593.778069 428.041824 594.930613 429.595037 C 596.083156 431.148251 597.196128 432.72867 598.272 434.336296 C 599.345399 435.946394 600.379226 437.578752 601.375954 439.238316 C 602.370208 440.89788 603.322417 442.579704 604.235053 444.28626 C 605.145217 445.990343 606.015808 447.719158 606.84188 449.46776 C 607.670425 451.216362 608.451978 452.984749 609.193959 454.77045 C 609.933467 456.558624 610.628456 458.361638 611.281399 460.181964 C 611.931869 462.004764 612.540293 463.83993 613.101726 465.692409 C 613.663158 467.542415 614.177598 469.404787 614.647519 471.281999 C 615.11744 473.159211 615.540369 475.046316 615.91878 476.943313 C 616.29719 478.840311 616.626135 480.744729 616.910561 482.65904 C 617.194987 484.570877 617.432421 486.490135 617.620389 488.414338 C 617.810831 490.341016 617.951807 492.267693 618.048265 494.20179 C 618.142249 496.133413 618.189241 498.065037 618.189241 499.999134 Z M 618.189241 499.999134 " stroke="#000000" stroke-width="21.280001" stroke-opacity="1" stroke-miterlimit="10"/><path stroke-linecap="butt" transform="matrix(1.579387, 0, 0, 1.579387, -39.754563, -39.754616)" fill-opacity="1" fill="#ffffff" fill-rule="nonzero" stroke-linejoin="miter" d="M 590.721108 499.999134 C 590.721108 501.485569 590.684009 502.969531 590.60981 504.45102 C 590.538086 505.934981 590.429262 507.413997 590.283339 508.893012 C 590.137416 510.369554 589.956867 511.843623 589.736746 513.310272 C 589.519099 514.779394 589.266825 516.24357 588.977452 517.697852 C 588.68808 519.154608 588.361608 520.603944 588.000511 522.043387 C 587.639414 523.48283 587.24369 524.914853 586.813341 526.33451 C 586.382992 527.754167 585.918018 529.163931 585.415944 530.561328 C 584.916344 531.961199 584.382117 533.34623 583.813265 534.716421 C 583.246886 536.089086 582.643409 537.444438 582.010252 538.787423 C 581.374621 540.130409 580.706838 541.456081 580.006903 542.764441 C 579.306968 544.075274 578.577353 545.366321 577.813113 546.640055 C 577.048872 547.913789 576.254953 549.167736 575.431354 550.401898 C 574.605282 551.63606 573.752004 552.850435 572.866573 554.042551 C 571.983616 555.234667 571.068506 556.404524 570.128664 557.552121 C 569.186348 558.699718 568.216826 559.822583 567.220099 560.923188 C 566.220898 562.023793 565.199437 563.099665 564.148298 564.148331 C 563.099631 565.199471 562.023759 566.220931 560.923154 567.220132 C 559.822549 568.21686 558.699684 569.186382 557.552087 570.126224 C 556.40449 571.06854 555.234633 571.98365 554.042517 572.866607 C 552.850401 573.752038 551.636026 574.605316 550.401864 575.431388 C 549.167703 576.254987 547.913755 577.048906 546.640021 577.813147 C 545.366287 578.577387 544.07524 579.307002 542.764407 580.006937 C 541.456048 580.706872 540.130375 581.374655 538.78739 582.010285 C 537.444404 582.643442 536.089052 583.24692 534.716388 583.813299 C 533.346196 584.382151 531.961165 584.916377 530.563768 585.415978 C 529.163897 585.918052 527.754133 586.383026 526.334476 586.813375 C 524.91482 587.243724 523.482796 587.639447 522.043353 588.000545 C 520.60391 588.361642 519.154574 588.688114 517.697818 588.977486 C 516.243536 589.266859 514.77936 589.519132 513.310238 589.73678 C 511.843589 589.956901 510.36952 590.13745 508.892978 590.283373 C 507.413963 590.429296 505.934948 590.538119 504.450986 590.609844 C 502.969497 590.684042 501.485535 590.721141 499.9991 590.721141 C 498.515138 590.721141 497.031176 590.684042 495.549688 590.609844 C 494.065726 590.538119 492.584237 590.429296 491.107695 590.283373 C 489.631153 590.13745 488.157085 589.956901 486.687962 589.73678 C 485.21884 589.519132 483.757138 589.266859 482.300382 588.977486 C 480.846099 588.688114 479.396763 588.361642 477.95732 588.000545 C 476.515404 587.639447 475.085854 587.243724 473.666197 586.813375 C 472.244067 586.383026 470.834303 585.918052 469.436906 585.415978 C 468.039509 584.916377 466.654478 584.382151 465.281813 583.813299 C 463.911621 583.24692 462.553796 582.643442 461.213284 582.010285 C 459.870299 581.374655 458.544626 580.706872 457.233793 580.006937 C 455.925433 579.307002 454.634387 578.577387 453.360653 577.813147 C 452.086919 577.048906 450.832971 576.254987 449.598809 575.431388 C 448.364648 574.605316 447.150272 573.752038 445.958156 572.866607 C 444.76604 571.98365 443.596184 571.06854 442.448587 570.126224 C 441.300989 569.186382 440.175652 568.21686 439.075047 567.220132 C 437.976915 566.220931 436.901043 565.199471 435.852376 564.148331 C 434.801236 563.099665 433.777303 562.023793 432.780575 560.923188 C 431.783847 559.822583 430.814326 558.699718 429.87201 557.552121 C 428.929694 556.404524 428.017058 555.234667 427.1341 554.042551 C 426.24867 552.850435 425.392918 551.63606 424.56932 550.401898 C 423.743247 549.167736 422.949328 547.913789 422.187561 546.640055 C 421.42332 545.366321 420.691233 544.075274 419.991297 542.764441 C 419.291362 541.456081 418.626052 540.130409 417.990422 538.787423 C 417.354792 537.444438 416.753787 536.089086 416.184935 534.716421 C 415.618556 533.34623 415.08433 531.961199 414.582256 530.561328 C 414.082656 529.163931 413.617681 527.754167 413.187332 526.33451 C 412.75451 524.914853 412.358787 523.48283 411.997689 522.043387 C 411.639065 520.603944 411.312594 519.154608 411.023221 517.697852 C 410.733849 516.24357 410.479102 514.779394 410.261454 513.310272 C 410.043806 511.843623 409.863258 510.369554 409.717335 508.893012 C 409.571412 507.413997 409.462588 505.934981 409.38839 504.45102 C 409.316665 502.969531 409.279566 501.485569 409.279566 499.999134 C 409.279566 498.515172 409.316665 497.03121 409.38839 495.549722 C 409.462588 494.06576 409.571412 492.584271 409.717335 491.107729 C 409.863258 489.631187 410.043806 488.157118 410.261454 486.687996 C 410.479102 485.218874 410.733849 483.757172 411.023221 482.300416 C 411.312594 480.846133 411.639065 479.396797 411.997689 477.957354 C 412.358787 476.515438 412.75451 475.085888 413.187332 473.666231 C 413.617681 472.244101 414.082656 470.834337 414.582256 469.43694 C 415.08433 468.039542 415.618556 466.654511 416.184935 465.281847 C 416.753787 463.911655 417.354792 462.55383 417.990422 461.213318 C 418.626052 459.870332 419.291362 458.54466 419.991297 457.233827 C 420.691233 455.925467 421.42332 454.63442 422.187561 453.360686 C 422.949328 452.086953 423.743247 450.833005 424.56932 449.598843 C 425.392918 448.364682 426.24867 447.150306 427.1341 445.95819 C 428.017058 444.766074 428.929694 443.596217 429.87201 442.44862 C 430.814326 441.301023 431.783847 440.175685 432.780575 439.07508 C 433.777303 437.976949 434.801236 436.901076 435.852376 435.85241 C 436.901043 434.80127 437.976915 433.777337 439.075047 432.780609 C 440.175652 431.783881 441.300989 430.814359 442.448587 429.872044 C 443.596184 428.929728 444.76604 428.017091 445.958156 427.134134 C 447.150272 426.248704 448.364648 425.392952 449.598809 424.569353 C 450.832971 423.743281 452.086919 422.949362 453.360653 422.187595 C 454.634387 421.423354 455.925433 420.691266 457.233793 419.991331 C 458.544626 419.291396 459.870299 418.626086 461.213284 417.990456 C 462.553796 417.354826 463.911621 416.753821 465.281813 416.184969 C 466.654478 415.61859 468.039509 415.084364 469.436906 414.58229 C 470.834303 414.08269 472.244067 413.617715 473.666197 413.187366 C 475.085854 412.754544 476.515404 412.358821 477.95732 411.997723 C 479.396763 411.639099 480.846099 411.312628 482.300382 411.023255 C 483.757138 410.733882 485.21884 410.479136 486.687962 410.261488 C 488.157085 410.04384 489.631153 409.863291 491.107695 409.717369 C 492.584237 409.571446 494.065726 409.462622 495.549688 409.388424 C 497.031176 409.316699 498.515138 409.2796 499.9991 409.2796 C 501.485535 409.2796 502.969497 409.316699 504.450986 409.388424 C 505.934948 409.462622 507.413963 409.571446 508.892978 409.717369 C 510.36952 409.863291 511.843589 410.04384 513.310238 410.261488 C 514.77936 410.479136 516.243536 410.733882 517.697818 411.023255 C 519.154574 411.312628 520.60391 411.639099 522.043353 411.997723 C 523.482796 412.358821 524.91482 412.754544 526.334476 413.187366 C 527.756607 413.617715 529.163897 414.08269 530.563768 414.58229 C 531.961165 415.084364 533.346196 415.61859 534.716388 416.184969 C 536.089052 416.753821 537.444404 417.354826 538.78739 417.990456 C 540.130375 418.626086 541.456048 419.291396 542.764407 419.991331 C 544.07524 420.691266 545.366287 421.423354 546.640021 422.187595 C 547.913755 422.949362 549.167703 423.743281 550.401864 424.569353 C 551.636026 425.392952 552.850401 426.248704 554.042517 427.134134 C 555.234633 428.017091 556.40449 428.929728 557.552087 429.872044 C 558.699684 430.814359 559.822549 431.783881 560.923154 432.780609 C 562.023759 433.777337 563.099631 434.80127 564.148298 435.85241 C 565.199437 436.901076 566.220898 437.976949 567.220099 439.07508 C 568.216826 440.175685 569.186348 441.301023 570.128664 442.44862 C 571.068506 443.596217 571.983616 444.766074 572.866573 445.95819 C 573.752004 447.150306 574.605282 448.364682 575.431354 449.598843 C 576.254953 450.833005 577.048872 452.086953 577.813113 453.360686 C 578.577353 454.63442 579.306968 455.925467 580.006903 457.233827 C 580.706838 458.54466 581.374621 459.870332 582.010252 461.213318 C 582.643409 462.55383 583.246886 463.911655 583.813265 465.281847 C 584.382117 466.654511 584.916344 468.039542 585.415944 469.43694 C 585.918018 470.834337 586.382992 472.244101 586.813341 473.666231 C 587.24369 475.085888 587.639414 476.515438 588.000511 477.957354 C 588.361608 479.396797 588.68808 480.846133 588.977452 482.300416 C 589.266825 483.757172 589.519099 485.218874 589.736746 486.687996 C 589.956867 488.157118 590.137416 489.631187 590.283339 491.107729 C 590.429262 492.584271 590.538086 494.06576 590.60981 495.549722 C 590.684009 497.03121 590.721108 498.515172 590.721108 499.999134 Z M 590.721108 499.999134 " stroke="#000000" stroke-width="16.34" stroke-opacity="1" stroke-miterlimit="10"/><path stroke-linecap="butt" transform="matrix(1.579387, 0, 0, 1.579387, -39.754563, -39.754616)" fill-opacity="1" fill="#000000" fill-rule="nonzero" stroke-linejoin="miter" d="M 549.77118 499.999134 C 549.77118 500.815313 549.748921 501.629019 549.709349 502.442724 C 549.669776 503.25643 549.610418 504.067663 549.531273 504.878895 C 549.449655 505.690128 549.350725 506.496414 549.232008 507.3027 C 549.110817 508.108985 548.972314 508.910325 548.814025 509.709191 C 548.655736 510.508057 548.475187 511.301977 548.277326 512.093423 C 548.079464 512.882396 547.86429 513.668896 547.626856 514.447976 C 547.389422 515.227056 547.134675 516.001189 546.860142 516.767903 C 546.585609 517.534616 546.293763 518.29391 545.982131 519.045784 C 545.670499 519.797658 545.339081 520.542112 544.99035 521.279147 C 544.644092 522.016181 544.278048 522.743323 543.892218 523.460571 C 543.508862 524.180292 543.108192 524.887647 542.690209 525.587583 C 542.269753 526.285045 541.834458 526.972614 541.38185 527.65029 C 540.929241 528.327966 540.461793 528.993275 539.974559 529.648692 C 539.489798 530.301635 538.990198 530.944685 538.473284 531.572896 C 537.956371 532.203579 537.424618 532.819423 536.878025 533.422901 C 536.328959 534.026379 535.767527 534.617491 535.193729 535.193762 C 534.617457 535.767561 534.026345 536.328993 533.422867 536.878059 C 532.81939 537.424652 532.203546 537.956405 531.572862 538.473318 C 530.944651 538.990231 530.301601 539.489832 529.648658 539.974593 C 528.993241 540.461827 528.327932 540.929275 527.650256 541.381883 C 526.97258 541.834492 526.285011 542.269787 525.587549 542.690243 C 524.887614 543.108226 524.180258 543.508895 523.460537 543.892252 C 522.743289 544.278082 522.016147 544.644126 521.279113 544.990384 C 520.542079 545.339115 519.797624 545.670533 519.04575 545.982165 C 518.293876 546.293797 517.534583 546.585643 516.767869 546.860176 C 516.001155 547.134709 515.227022 547.389456 514.447942 547.626889 C 513.668862 547.864323 512.882362 548.079498 512.093389 548.277359 C 511.301943 548.475221 510.508023 548.65577 509.709157 548.814059 C 508.910291 548.972348 508.108952 549.110851 507.302666 549.232041 C 506.49638 549.350758 505.690094 549.449689 504.878861 549.531307 C 504.067629 549.610452 503.256396 549.66981 502.442691 549.709383 C 501.628985 549.748955 500.815279 549.771214 499.9991 549.771214 C 499.185394 549.771214 498.371689 549.748955 497.557983 549.709383 C 496.744277 549.66981 495.933045 549.610452 495.121812 549.531307 C 494.31058 549.449689 493.501821 549.350758 492.698008 549.232041 C 491.891722 549.110851 491.090383 548.972348 490.291516 548.814059 C 489.49265 548.65577 488.696257 548.475221 487.907284 548.277359 C 487.115838 548.079498 486.331812 547.864323 485.552732 547.626889 C 484.773652 547.389456 483.999518 547.134709 483.232805 546.860176 C 482.466091 546.585643 481.706797 546.293797 480.954923 545.982165 C 480.200576 545.670533 479.456122 545.339115 478.721561 544.990384 C 477.984526 544.644126 477.257385 544.278082 476.537663 543.892252 C 475.820415 543.508895 475.110587 543.108226 474.413125 542.690243 C 473.713189 542.269787 473.02562 541.834492 472.350418 541.381883 C 471.672742 540.929275 471.007432 540.461827 470.352016 539.974593 C 469.696599 539.489832 469.056022 538.990231 468.425339 538.473318 C 467.797128 537.956405 467.178811 537.424652 466.575333 536.878059 C 465.971855 536.328993 465.383217 535.767561 464.806945 535.193762 C 464.230673 534.617491 463.669241 534.026379 463.122648 533.422901 C 462.576056 532.819423 462.044303 532.203579 461.527389 531.572896 C 461.010476 530.944685 460.508402 530.301635 460.023641 529.648692 C 459.53888 528.993275 459.071432 528.327966 458.618824 527.65029 C 458.166216 526.972614 457.728447 526.285045 457.310464 525.587583 C 456.892482 524.887647 456.491812 524.180292 456.105982 523.460571 C 455.722625 522.743323 455.356581 522.016181 455.00785 521.279147 C 454.659119 520.542112 454.330174 519.797658 454.018542 519.045784 C 453.70691 518.29391 453.412591 517.534616 453.140532 516.767903 C 452.865999 516.001189 452.608779 515.227056 452.373818 514.447976 C 452.136384 513.668896 451.918736 512.882396 451.720875 512.093423 C 451.523013 511.301977 451.344938 510.508057 451.186649 509.709191 C 451.028359 508.910325 450.887383 508.108985 450.768666 507.3027 C 450.649949 506.496414 450.548545 505.690128 450.4694 504.878895 C 450.390256 504.067663 450.330897 503.25643 450.288852 502.442724 C 450.249279 501.629019 450.229493 500.815313 450.229493 499.999134 C 450.229493 499.185428 450.249279 498.371722 450.288852 497.558017 C 450.330897 496.744311 450.390256 495.933079 450.4694 495.121846 C 450.548545 494.310614 450.649949 493.501854 450.768666 492.698042 C 450.887383 491.891756 451.028359 491.090416 451.186649 490.29155 C 451.344938 489.492684 451.523013 488.696291 451.720875 487.907318 C 451.918736 487.115872 452.136384 486.331845 452.373818 485.552765 C 452.608779 484.773685 452.865999 483.999552 453.140532 483.232838 C 453.412591 482.466125 453.70691 481.706831 454.018542 480.954957 C 454.330174 480.20061 454.659119 479.456155 455.00785 478.721594 C 455.356581 477.98456 455.722625 477.257419 456.105982 476.537697 C 456.491812 475.820449 456.892482 475.110621 457.310464 474.413158 C 457.728447 473.713223 458.166216 473.025654 458.618824 472.347978 C 459.071432 471.672776 459.53888 471.007466 460.023641 470.35205 C 460.508402 469.696633 461.010476 469.056056 461.527389 468.425372 C 462.044303 467.797162 462.576056 467.178844 463.122648 466.575367 C 463.669241 465.971889 464.230673 465.383251 464.806945 464.806979 C 465.383217 464.230707 465.971855 463.669275 466.575333 463.122682 C 467.178811 462.576089 467.797128 462.044336 468.425339 461.527423 C 469.056022 461.01051 469.696599 460.508436 470.352016 460.023675 C 471.007432 459.538914 471.672742 459.071466 472.350418 458.618858 C 473.02562 458.16625 473.713189 457.728481 474.413125 457.310498 C 475.110587 456.892516 475.820415 456.491846 476.537663 456.106016 C 477.257385 455.722659 477.984526 455.356615 478.721561 455.007884 C 479.456122 454.659153 480.200576 454.330208 480.954923 454.018576 C 481.706797 453.706944 482.466091 453.412625 483.232805 453.138092 C 483.999518 452.866032 484.773652 452.608812 485.552732 452.373852 C 486.331812 452.136418 487.115838 451.91877 487.907284 451.720909 C 488.696257 451.523047 489.49265 451.344972 490.291516 451.186682 C 491.090383 451.028393 491.891722 450.887417 492.698008 450.7687 C 493.501821 450.649983 494.31058 450.548579 495.121812 450.469434 C 495.933045 450.390289 496.744277 450.330931 497.557983 450.288885 C 498.371689 450.249313 499.185394 450.229527 499.9991 450.229527 C 500.815279 450.229527 501.628985 450.249313 502.442691 450.288885 C 503.256396 450.330931 504.067629 450.390289 504.878861 450.469434 C 505.690094 450.548579 506.49638 450.649983 507.302666 450.7687 C 508.108952 450.887417 508.910291 451.028393 509.709157 451.186682 C 510.508023 451.344972 511.301943 451.523047 512.093389 451.720909 C 512.882362 451.91877 513.668862 452.136418 514.447942 452.373852 C 515.227022 452.608812 516.001155 452.866032 516.767869 453.138092 C 517.534583 453.412625 518.293876 453.706944 519.04575 454.018576 C 519.797624 454.330208 520.542079 454.659153 521.279113 455.007884 C 522.016147 455.356615 522.743289 455.722659 523.460537 456.106016 C 524.180258 456.491846 524.887614 456.892516 525.587549 457.310498 C 526.285011 457.728481 526.97258 458.16625 527.650256 458.618858 C 528.327932 459.071466 528.993241 459.538914 529.648658 460.023675 C 530.301601 460.508436 530.944651 461.01051 531.572862 461.527423 C 532.203546 462.044336 532.81939 462.576089 533.422867 463.122682 C 534.026345 463.669275 534.617457 464.230707 535.193729 464.806979 C 535.767527 465.383251 536.328959 465.971889 536.878025 466.575367 C 537.424618 467.178844 537.956371 467.797162 538.473284 468.425372 C 538.990198 469.056056 539.489798 469.696633 539.974559 470.35205 C 540.461793 471.007466 540.929241 471.672776 541.38185 472.350452 C 541.834458 473.025654 542.269753 473.713223 542.690209 474.413158 C 543.108192 475.110621 543.508862 475.820449 543.892218 476.537697 C 544.278048 477.257419 544.644092 477.98456 544.99035 478.721594 C 545.339081 479.456155 545.670499 480.20061 545.982131 480.954957 C 546.293763 481.706831 546.585609 482.466125 546.860142 483.232838 C 547.134675 483.999552 547.389422 484.773685 547.626856 485.552765 C 547.86429 486.331845 548.079464 487.115872 548.277326 487.907318 C 548.475187 488.696291 548.655736 489.492684 548.814025 490.29155 C 548.972314 491.090416 549.110817 491.891756 549.232008 492.698042 C 549.350725 493.501854 549.449655 494.310614 549.531273 495.121846 C 549.610418 495.933079 549.669776 496.744311 549.709349 497.558017 C 549.748921 498.371722 549.77118 499.185428 549.77118 499.999134 Z M 549.77118 499.999134 " stroke="#000000" stroke-width="8.96" stroke-opacity="1" stroke-miterlimit="10"/></svg>